<mxfile host="app.diagrams.net" modified="2021-02-08T19:35:07.890Z" agent="5.0 (Windows)" etag="vSIzhMvHsM1xGNylKcBr" version="13.9.8" type="github">
  <diagram id="cGVUVjOHrdGCIwxizeSe" name="Page-1">
    <mxGraphModel dx="868" dy="479" grid="1" gridSize="10" guides="1" tooltips="1" connect="1" arrows="1" fold="1" page="1" pageScale="1" pageWidth="850" pageHeight="1100" math="0" shadow="0">
      <root>
        <mxCell id="0" />
        <mxCell id="1" parent="0" />
        <mxCell id="Ojedzj1Hnx-V5VLSPEPJ-7" value="" style="rounded=0;whiteSpace=wrap;html=1;" vertex="1" parent="1">
          <mxGeometry x="510" y="355" width="120" height="170" as="geometry" />
        </mxCell>
        <mxCell id="Ojedzj1Hnx-V5VLSPEPJ-8" value="&lt;b&gt;Customer&lt;/b&gt;" style="text;html=1;strokeColor=none;fillColor=none;align=center;verticalAlign=middle;whiteSpace=wrap;rounded=0;" vertex="1" parent="1">
          <mxGeometry x="550" y="430" width="40" height="20" as="geometry" />
        </mxCell>
        <mxCell id="Ojedzj1Hnx-V5VLSPEPJ-9" value="" style="rounded=0;whiteSpace=wrap;html=1;" vertex="1" parent="1">
          <mxGeometry x="460" y="370" width="60" height="20" as="geometry" />
        </mxCell>
        <mxCell id="Ojedzj1Hnx-V5VLSPEPJ-10" value="" style="rounded=0;whiteSpace=wrap;html=1;" vertex="1" parent="1">
          <mxGeometry x="460" y="440" width="60" height="20" as="geometry" />
        </mxCell>
        <mxCell id="Ojedzj1Hnx-V5VLSPEPJ-12" value="" style="endArrow=classic;html=1;exitX=0.017;exitY=0.053;exitDx=0;exitDy=0;exitPerimeter=0;" edge="1" parent="1" source="Ojedzj1Hnx-V5VLSPEPJ-7">
          <mxGeometry width="50" height="50" relative="1" as="geometry">
            <mxPoint x="400" y="370" as="sourcePoint" />
            <mxPoint x="390" y="364" as="targetPoint" />
          </mxGeometry>
        </mxCell>
        <mxCell id="Ojedzj1Hnx-V5VLSPEPJ-13" value="&lt;div&gt;Booking&lt;/div&gt;&lt;div&gt;&lt;br&gt;&lt;/div&gt;" style="text;html=1;strokeColor=none;fillColor=none;align=center;verticalAlign=middle;whiteSpace=wrap;rounded=0;" vertex="1" parent="1">
          <mxGeometry x="430" y="350" width="40" height="20" as="geometry" />
        </mxCell>
        <mxCell id="Ojedzj1Hnx-V5VLSPEPJ-14" value="&lt;br id=&quot;docs-internal-guid-060a76a6-7fff-bb53-c576-f43b333abf65&quot;&gt;&lt;div dir=&quot;ltr&quot; style=&quot;margin-left: 0pt&quot; align=&quot;left&quot;&gt;&lt;table style=&quot;border: none ; border-collapse: collapse&quot;&gt;&lt;colgroup&gt;&lt;col width=&quot;162&quot;&gt;&lt;/colgroup&gt;&lt;tbody&gt;&lt;tr style=&quot;height: 0pt&quot;&gt;&lt;td style=&quot;border-left: solid #000000 1pt ; border-right: solid #000000 1pt ; border-bottom: solid #000000 1pt ; border-top: solid #000000 1pt ; vertical-align: top ; padding: 5pt 5pt 5pt 5pt ; overflow: hidden ; overflow-wrap: break-word&quot;&gt;&lt;p dir=&quot;ltr&quot; style=&quot;line-height: 1.2 ; margin-top: 0pt ; margin-bottom: 0pt&quot;&gt;&lt;b&gt;&lt;span style=&quot;font-size: 11pt ; font-family: &amp;#34;arial&amp;#34; ; color: rgb(0 , 0 , 0) ; background-color: transparent ; font-style: normal ; font-variant: normal ; text-decoration: none ; vertical-align: baseline&quot;&gt;Elaborated Customer&lt;/span&gt;&lt;/b&gt;&lt;/p&gt;&lt;/td&gt;&lt;/tr&gt;&lt;tr style=&quot;height: 0pt&quot;&gt;&lt;td style=&quot;border-left: solid #000000 1pt ; border-right: solid #000000 1pt ; border-bottom: solid #000000 1pt ; border-top: solid #000000 1pt ; vertical-align: top ; padding: 5pt 5pt 5pt 5pt ; overflow: hidden ; overflow-wrap: break-word&quot;&gt;&lt;p dir=&quot;ltr&quot; style=&quot;line-height: 1.2 ; margin-top: 0pt ; margin-bottom: 0pt&quot;&gt;&lt;span style=&quot;font-size: 11pt ; font-family: &amp;#34;arial&amp;#34; ; color: rgb(0 , 0 , 0) ; background-color: transparent ; font-weight: 400 ; font-style: normal ; font-variant: normal ; text-decoration: none ; vertical-align: baseline&quot;&gt;caregaver_list&lt;/span&gt;&lt;/p&gt;&lt;p dir=&quot;ltr&quot; style=&quot;line-height: 1.2 ; margin-top: 0pt ; margin-bottom: 0pt&quot;&gt;&lt;span style=&quot;font-size: 11pt ; font-family: &amp;#34;arial&amp;#34; ; color: rgb(0 , 0 , 0) ; background-color: transparent ; font-weight: 400 ; font-style: normal ; font-variant: normal ; text-decoration: none ; vertical-align: baseline&quot;&gt;workTime&lt;/span&gt;&lt;/p&gt;&lt;/td&gt;&lt;/tr&gt;&lt;tr style=&quot;height: 0pt&quot;&gt;&lt;td style=&quot;border-left: solid #000000 1pt ; border-right: solid #000000 1pt ; border-bottom: solid #000000 1pt ; border-top: solid #000000 1pt ; vertical-align: top ; padding: 5pt 5pt 5pt 5pt ; overflow: hidden ; overflow-wrap: break-word&quot;&gt;&lt;p dir=&quot;ltr&quot; style=&quot;line-height: 1.2 ; margin-top: 0pt ; margin-bottom: 0pt&quot;&gt;&lt;span style=&quot;font-size: 11pt ; font-family: &amp;#34;arial&amp;#34; ; color: rgb(0 , 0 , 0) ; background-color: transparent ; font-weight: 400 ; font-style: normal ; font-variant: normal ; text-decoration: none ; vertical-align: baseline&quot;&gt;select_location()&lt;/span&gt;&lt;/p&gt;&lt;p dir=&quot;ltr&quot; style=&quot;line-height: 1.2 ; margin-top: 0pt ; margin-bottom: 0pt&quot;&gt;&lt;span style=&quot;font-size: 11pt ; font-family: &amp;#34;arial&amp;#34; ; color: rgb(0 , 0 , 0) ; background-color: transparent ; font-weight: 400 ; font-style: normal ; font-variant: normal ; text-decoration: none ; vertical-align: baseline&quot;&gt;book_slot()&lt;/span&gt;&lt;/p&gt;&lt;p dir=&quot;ltr&quot; style=&quot;line-height: 1.2 ; margin-top: 0pt ; margin-bottom: 0pt&quot;&gt;&lt;span style=&quot;font-size: 11pt ; font-family: &amp;#34;arial&amp;#34; ; color: rgb(0 , 0 , 0) ; background-color: transparent ; font-weight: 400 ; font-style: normal ; font-variant: normal ; text-decoration: none ; vertical-align: baseline&quot;&gt;sendMessages()&lt;/span&gt;&lt;/p&gt;&lt;p dir=&quot;ltr&quot; style=&quot;line-height: 1.2 ; margin-top: 0pt ; margin-bottom: 0pt&quot;&gt;&lt;span style=&quot;font-size: 11pt ; font-family: &amp;#34;arial&amp;#34; ; color: rgb(0 , 0 , 0) ; background-color: transparent ; font-weight: 400 ; font-style: normal ; font-variant: normal ; text-decoration: none ; vertical-align: baseline&quot;&gt;receiveMessages()&lt;/span&gt;&lt;/p&gt;&lt;p dir=&quot;ltr&quot; style=&quot;line-height: 1.2 ; margin-top: 0pt ; margin-bottom: 0pt&quot;&gt;&lt;span style=&quot;font-size: 11pt ; font-family: &amp;#34;arial&amp;#34; ; color: rgb(0 , 0 , 0) ; background-color: transparent ; font-weight: 400 ; font-style: normal ; font-variant: normal ; text-decoration: none ; vertical-align: baseline&quot;&gt;confirm_booking()&lt;/span&gt;&lt;/p&gt;&lt;p dir=&quot;ltr&quot; style=&quot;line-height: 1.2 ; margin-top: 0pt ; margin-bottom: 0pt&quot;&gt;&lt;span style=&quot;font-size: 11pt ; font-family: &amp;#34;arial&amp;#34; ; color: rgb(0 , 0 , 0) ; background-color: transparent ; font-weight: 400 ; font-style: normal ; font-variant: normal ; text-decoration: none ; vertical-align: baseline&quot;&gt;cancel_booking()&lt;/span&gt;&lt;/p&gt;&lt;p dir=&quot;ltr&quot; style=&quot;line-height: 1.2 ; margin-top: 0pt ; margin-bottom: 0pt&quot;&gt;&lt;span style=&quot;font-size: 11pt ; font-family: &amp;#34;arial&amp;#34; ; color: rgb(0 , 0 , 0) ; background-color: transparent ; font-weight: 400 ; font-style: normal ; font-variant: normal ; text-decoration: none ; vertical-align: baseline&quot;&gt;pay()&lt;/span&gt;&lt;/p&gt;&lt;p dir=&quot;ltr&quot; style=&quot;line-height: 1.2 ; margin-top: 0pt ; margin-bottom: 0pt&quot;&gt;&lt;span style=&quot;font-size: 11pt ; font-family: &amp;#34;arial&amp;#34; ; color: rgb(0 , 0 , 0) ; background-color: transparent ; font-weight: 400 ; font-style: normal ; font-variant: normal ; text-decoration: none ; vertical-align: baseline&quot;&gt;view_nearby_caregiver()&lt;/span&gt;&lt;/p&gt;&lt;p dir=&quot;ltr&quot; style=&quot;line-height: 1.2 ; margin-top: 0pt ; margin-bottom: 0pt&quot;&gt;&lt;span style=&quot;font-size: 11pt ; font-family: &amp;#34;arial&amp;#34; ; color: rgb(0 , 0 , 0) ; background-color: transparent ; font-weight: 400 ; font-style: normal ; font-variant: normal ; text-decoration: none ; vertical-align: baseline&quot;&gt;report()&lt;/span&gt;&lt;/p&gt;&lt;p dir=&quot;ltr&quot; style=&quot;line-height: 1.2 ; margin-top: 0pt ; margin-bottom: 0pt&quot;&gt;&lt;span style=&quot;font-size: 11pt ; font-family: &amp;#34;arial&amp;#34; ; color: rgb(0 , 0 , 0) ; background-color: transparent ; font-weight: 400 ; font-style: normal ; font-variant: normal ; text-decoration: none ; vertical-align: baseline&quot;&gt;markFavorite()&lt;/span&gt;&lt;/p&gt;&lt;/td&gt;&lt;/tr&gt;&lt;/tbody&gt;&lt;/table&gt;&lt;/div&gt;" style="text;whiteSpace=wrap;html=1;" vertex="1" parent="1">
          <mxGeometry x="425" y="610" width="215" height="300" as="geometry" />
        </mxCell>
        <mxCell id="Ojedzj1Hnx-V5VLSPEPJ-15" value="&lt;br id=&quot;docs-internal-guid-d7dd7295-7fff-8682-fdf1-df53559df01c&quot;&gt;&lt;div dir=&quot;ltr&quot; style=&quot;margin-left: 0pt&quot; align=&quot;left&quot;&gt;&lt;table style=&quot;border: none ; border-collapse: collapse&quot;&gt;&lt;colgroup&gt;&lt;col width=&quot;185&quot;&gt;&lt;/colgroup&gt;&lt;tbody&gt;&lt;tr style=&quot;height: 0pt&quot;&gt;&lt;td style=&quot;border-left: solid #000000 1pt ; border-right: solid #000000 1pt ; border-bottom: solid #000000 1pt ; border-top: solid #000000 1pt ; vertical-align: top ; padding: 5pt 5pt 5pt 5pt ; overflow: hidden ; overflow-wrap: break-word&quot;&gt;&lt;p dir=&quot;ltr&quot; style=&quot;line-height: 1.2 ; margin-top: 0pt ; margin-bottom: 0pt&quot;&gt;&lt;b&gt;&lt;span style=&quot;font-size: 11pt ; font-family: &amp;#34;arial&amp;#34; ; color: rgb(0 , 0 , 0) ; background-color: transparent ; font-style: normal ; font-variant: normal ; text-decoration: none ; vertical-align: baseline&quot;&gt;Customer&lt;/span&gt;&lt;/b&gt;&lt;/p&gt;&lt;/td&gt;&lt;/tr&gt;&lt;tr style=&quot;height: 0pt&quot;&gt;&lt;td style=&quot;border-left: solid #000000 1pt ; border-right: solid #000000 1pt ; border-bottom: solid #000000 1pt ; border-top: solid #000000 1pt ; vertical-align: top ; padding: 5pt 5pt 5pt 5pt ; overflow: hidden ; overflow-wrap: break-word&quot;&gt;&lt;p dir=&quot;ltr&quot; style=&quot;line-height: 1.2 ; margin-top: 0pt ; margin-bottom: 0pt&quot;&gt;&lt;span style=&quot;font-size: 11pt ; font-family: &amp;#34;arial&amp;#34; ; color: rgb(0 , 0 , 0) ; background-color: transparent ; font-weight: 400 ; font-style: normal ; font-variant: normal ; text-decoration: none ; vertical-align: baseline&quot;&gt;caregaver_list&lt;/span&gt;&lt;/p&gt;&lt;/td&gt;&lt;/tr&gt;&lt;tr style=&quot;height: 0pt&quot;&gt;&lt;td style=&quot;border-left: solid #000000 1pt ; border-right: solid #000000 1pt ; border-bottom: solid #000000 1pt ; border-top: solid #000000 1pt ; vertical-align: top ; padding: 5pt 5pt 5pt 5pt ; overflow: hidden ; overflow-wrap: break-word&quot;&gt;&lt;p dir=&quot;ltr&quot; style=&quot;line-height: 1.2 ; margin-top: 0pt ; margin-bottom: 0pt&quot;&gt;&lt;span style=&quot;font-size: 11pt ; font-family: &amp;#34;arial&amp;#34; ; color: rgb(0 , 0 , 0) ; background-color: transparent ; font-weight: 400 ; font-style: normal ; font-variant: normal ; text-decoration: none ; vertical-align: baseline&quot;&gt;select_location()&lt;/span&gt;&lt;/p&gt;&lt;p dir=&quot;ltr&quot; style=&quot;line-height: 1.2 ; margin-top: 0pt ; margin-bottom: 0pt&quot;&gt;&lt;span style=&quot;font-size: 11pt ; font-family: &amp;#34;arial&amp;#34; ; color: rgb(0 , 0 , 0) ; background-color: transparent ; font-weight: 400 ; font-style: normal ; font-variant: normal ; text-decoration: none ; vertical-align: baseline&quot;&gt;book_slot()&lt;/span&gt;&lt;/p&gt;&lt;p dir=&quot;ltr&quot; style=&quot;line-height: 1.2 ; margin-top: 0pt ; margin-bottom: 0pt&quot;&gt;&lt;span style=&quot;font-size: 11pt ; font-family: &amp;#34;arial&amp;#34; ; color: rgb(0 , 0 , 0) ; background-color: transparent ; font-weight: 400 ; font-style: normal ; font-variant: normal ; text-decoration: none ; vertical-align: baseline&quot;&gt;chat()&lt;/span&gt;&lt;/p&gt;&lt;p dir=&quot;ltr&quot; style=&quot;line-height: 1.2 ; margin-top: 0pt ; margin-bottom: 0pt&quot;&gt;&lt;span style=&quot;font-size: 11pt ; font-family: &amp;#34;arial&amp;#34; ; color: rgb(0 , 0 , 0) ; background-color: transparent ; font-weight: 400 ; font-style: normal ; font-variant: normal ; text-decoration: none ; vertical-align: baseline&quot;&gt;confirm_booking()&lt;/span&gt;&lt;/p&gt;&lt;p dir=&quot;ltr&quot; style=&quot;line-height: 1.2 ; margin-top: 0pt ; margin-bottom: 0pt&quot;&gt;&lt;span style=&quot;font-size: 11pt ; font-family: &amp;#34;arial&amp;#34; ; color: rgb(0 , 0 , 0) ; background-color: transparent ; font-weight: 400 ; font-style: normal ; font-variant: normal ; text-decoration: none ; vertical-align: baseline&quot;&gt;cancel_booking()&lt;/span&gt;&lt;/p&gt;&lt;p dir=&quot;ltr&quot; style=&quot;line-height: 1.2 ; margin-top: 0pt ; margin-bottom: 0pt&quot;&gt;&lt;span style=&quot;font-size: 11pt ; font-family: &amp;#34;arial&amp;#34; ; color: rgb(0 , 0 , 0) ; background-color: transparent ; font-weight: 400 ; font-style: normal ; font-variant: normal ; text-decoration: none ; vertical-align: baseline&quot;&gt;pay()&lt;/span&gt;&lt;/p&gt;&lt;p dir=&quot;ltr&quot; style=&quot;line-height: 1.2 ; margin-top: 0pt ; margin-bottom: 0pt&quot;&gt;&lt;span style=&quot;font-size: 11pt ; font-family: &amp;#34;arial&amp;#34; ; color: rgb(0 , 0 , 0) ; background-color: transparent ; font-weight: 400 ; font-style: normal ; font-variant: normal ; text-decoration: none ; vertical-align: baseline&quot;&gt;view_nearby_caregiver()&lt;/span&gt;&lt;/p&gt;&lt;/td&gt;&lt;/tr&gt;&lt;/tbody&gt;&lt;/table&gt;&lt;/div&gt;" style="text;whiteSpace=wrap;html=1;" vertex="1" parent="1">
          <mxGeometry x="90" y="180" width="180" height="230" as="geometry" />
        </mxCell>
        <mxCell id="Ojedzj1Hnx-V5VLSPEPJ-16" value="" style="endArrow=classic;html=1;exitX=0.017;exitY=0.053;exitDx=0;exitDy=0;exitPerimeter=0;" edge="1" parent="1">
          <mxGeometry width="50" height="50" relative="1" as="geometry">
            <mxPoint x="511.02" y="430.01" as="sourcePoint" />
            <mxPoint x="388.98" y="430" as="targetPoint" />
          </mxGeometry>
        </mxCell>
        <mxCell id="Ojedzj1Hnx-V5VLSPEPJ-17" value="&lt;div&gt;Caregiver_Management&lt;/div&gt;" style="text;html=1;strokeColor=none;fillColor=none;align=center;verticalAlign=middle;whiteSpace=wrap;rounded=0;" vertex="1" parent="1">
          <mxGeometry x="420" y="410" width="40" height="20" as="geometry" />
        </mxCell>
        <mxCell id="Ojedzj1Hnx-V5VLSPEPJ-20" value="" style="rounded=0;whiteSpace=wrap;html=1;" vertex="1" parent="1">
          <mxGeometry x="460" y="490" width="60" height="20" as="geometry" />
        </mxCell>
        <mxCell id="Ojedzj1Hnx-V5VLSPEPJ-21" value="" style="endArrow=classic;html=1;exitX=0;exitY=0.75;exitDx=0;exitDy=0;" edge="1" parent="1" source="Ojedzj1Hnx-V5VLSPEPJ-7">
          <mxGeometry width="50" height="50" relative="1" as="geometry">
            <mxPoint x="380" y="520" as="sourcePoint" />
            <mxPoint x="390" y="483" as="targetPoint" />
          </mxGeometry>
        </mxCell>
        <mxCell id="Ojedzj1Hnx-V5VLSPEPJ-22" value="Mark_favourite" style="text;html=1;strokeColor=none;fillColor=none;align=center;verticalAlign=middle;whiteSpace=wrap;rounded=0;" vertex="1" parent="1">
          <mxGeometry x="420" y="460" width="40" height="20" as="geometry" />
        </mxCell>
        <mxCell id="Ojedzj1Hnx-V5VLSPEPJ-23" value="" style="rounded=0;whiteSpace=wrap;html=1;" vertex="1" parent="1">
          <mxGeometry x="360" y="670" width="70" height="20" as="geometry" />
        </mxCell>
        <mxCell id="Ojedzj1Hnx-V5VLSPEPJ-25" value="" style="rounded=0;whiteSpace=wrap;html=1;" vertex="1" parent="1">
          <mxGeometry x="360" y="760" width="70" height="20" as="geometry" />
        </mxCell>
        <mxCell id="Ojedzj1Hnx-V5VLSPEPJ-26" value="" style="rounded=0;whiteSpace=wrap;html=1;" vertex="1" parent="1">
          <mxGeometry x="360" y="850" width="70" height="20" as="geometry" />
        </mxCell>
        <mxCell id="Ojedzj1Hnx-V5VLSPEPJ-30" value="" style="rounded=0;whiteSpace=wrap;html=1;" vertex="1" parent="1">
          <mxGeometry x="90" y="520" width="150" height="110" as="geometry" />
        </mxCell>
        <mxCell id="Ojedzj1Hnx-V5VLSPEPJ-31" value="" style="endArrow=none;html=1;exitX=0;exitY=0.336;exitDx=0;exitDy=0;exitPerimeter=0;" edge="1" parent="1" source="Ojedzj1Hnx-V5VLSPEPJ-30">
          <mxGeometry width="50" height="50" relative="1" as="geometry">
            <mxPoint x="30" y="850" as="sourcePoint" />
            <mxPoint x="240" y="560" as="targetPoint" />
          </mxGeometry>
        </mxCell>
        <mxCell id="Ojedzj1Hnx-V5VLSPEPJ-32" value="&lt;div&gt;&amp;lt;&amp;lt;interface&amp;gt;&amp;gt;&lt;/div&gt;&lt;div&gt;&lt;b&gt;Booking&lt;/b&gt;&lt;br&gt;&lt;/div&gt;" style="text;html=1;strokeColor=none;fillColor=none;align=center;verticalAlign=middle;whiteSpace=wrap;rounded=0;" vertex="1" parent="1">
          <mxGeometry x="145" y="525" width="40" height="20" as="geometry" />
        </mxCell>
        <mxCell id="Ojedzj1Hnx-V5VLSPEPJ-34" value="&lt;p dir=&quot;ltr&quot; style=&quot;line-height: 1.2 ; margin-top: 0pt ; margin-bottom: 0pt&quot;&gt;&lt;span style=&quot;font-size: 11pt ; font-family: &amp;#34;arial&amp;#34; ; color: rgb(0 , 0 , 0) ; background-color: transparent ; font-weight: 400 ; font-style: normal ; font-variant: normal ; text-decoration: none ; vertical-align: baseline&quot;&gt;confirm_booking()&lt;/span&gt;&lt;/p&gt;&lt;p dir=&quot;ltr&quot; style=&quot;line-height: 1.2 ; margin-top: 0pt ; margin-bottom: 0pt&quot;&gt;&lt;span style=&quot;font-size: 11pt ; font-family: &amp;#34;arial&amp;#34; ; color: rgb(0 , 0 , 0) ; background-color: transparent ; font-weight: 400 ; font-style: normal ; font-variant: normal ; text-decoration: none ; vertical-align: baseline&quot;&gt;cancel_booking()&lt;/span&gt;&lt;/p&gt;" style="text;html=1;strokeColor=none;fillColor=none;align=center;verticalAlign=middle;whiteSpace=wrap;rounded=0;" vertex="1" parent="1">
          <mxGeometry x="145" y="580" width="40" height="20" as="geometry" />
        </mxCell>
        <mxCell id="Ojedzj1Hnx-V5VLSPEPJ-35" value="" style="rounded=0;whiteSpace=wrap;html=1;" vertex="1" parent="1">
          <mxGeometry x="80" y="680" width="170" height="130" as="geometry" />
        </mxCell>
        <mxCell id="Ojedzj1Hnx-V5VLSPEPJ-36" value="&lt;p dir=&quot;ltr&quot; style=&quot;line-height: 1.2 ; margin-top: 0pt ; margin-bottom: 0pt&quot;&gt;&lt;span style=&quot;font-size: 11pt ; font-family: &amp;#34;arial&amp;#34; ; color: rgb(0 , 0 , 0) ; background-color: transparent ; font-weight: 400 ; font-style: normal ; font-variant: normal ; text-decoration: none ; vertical-align: baseline&quot;&gt;select_location()&lt;/span&gt;&lt;/p&gt;&lt;p dir=&quot;ltr&quot; style=&quot;line-height: 1.2 ; margin-top: 0pt ; margin-bottom: 0pt&quot;&gt;&lt;span style=&quot;font-size: 11pt ; font-family: &amp;#34;arial&amp;#34; ; color: rgb(0 , 0 , 0) ; background-color: transparent ; font-weight: 400 ; font-style: normal ; font-variant: normal ; text-decoration: none ; vertical-align: baseline&quot;&gt;book_slot()&lt;/span&gt;&lt;/p&gt;&lt;p dir=&quot;ltr&quot; style=&quot;line-height: 1.2 ; margin-top: 0pt ; margin-bottom: 0pt&quot;&gt;&lt;span style=&quot;font-size: 11pt ; font-family: &amp;#34;arial&amp;#34; ; color: rgb(0 , 0 , 0) ; background-color: transparent ; font-weight: 400 ; font-style: normal ; font-variant: normal ; text-decoration: none ; vertical-align: baseline&quot;&gt;&lt;span style=&quot;font-size: 11pt ; font-family: &amp;#34;arial&amp;#34; ; color: rgb(0 , 0 , 0) ; background-color: transparent ; font-weight: 400 ; font-style: normal ; font-variant: normal ; text-decoration: none ; vertical-align: baseline&quot;&gt;view_nearby_caregiver()&lt;/span&gt;&lt;/span&gt;&lt;/p&gt;" style="text;html=1;strokeColor=none;fillColor=none;align=center;verticalAlign=middle;whiteSpace=wrap;rounded=0;" vertex="1" parent="1">
          <mxGeometry x="145" y="760" width="40" height="20" as="geometry" />
        </mxCell>
        <mxCell id="Ojedzj1Hnx-V5VLSPEPJ-37" value="&lt;div&gt;&amp;lt;&amp;lt;interface&amp;gt;&amp;gt;&lt;/div&gt;&lt;div&gt;&lt;b&gt;Caregiver_Management&lt;/b&gt;&lt;/div&gt;" style="text;html=1;strokeColor=none;fillColor=none;align=center;verticalAlign=middle;whiteSpace=wrap;rounded=0;" vertex="1" parent="1">
          <mxGeometry x="145" y="700" width="40" height="20" as="geometry" />
        </mxCell>
        <mxCell id="Ojedzj1Hnx-V5VLSPEPJ-38" value="" style="endArrow=none;html=1;exitX=0;exitY=0.385;exitDx=0;exitDy=0;exitPerimeter=0;entryX=1;entryY=0.385;entryDx=0;entryDy=0;entryPerimeter=0;" edge="1" parent="1" source="Ojedzj1Hnx-V5VLSPEPJ-35" target="Ojedzj1Hnx-V5VLSPEPJ-35">
          <mxGeometry width="50" height="50" relative="1" as="geometry">
            <mxPoint x="270" y="750" as="sourcePoint" />
            <mxPoint x="320" y="700" as="targetPoint" />
          </mxGeometry>
        </mxCell>
        <mxCell id="Ojedzj1Hnx-V5VLSPEPJ-39" value="" style="rounded=0;whiteSpace=wrap;html=1;" vertex="1" parent="1">
          <mxGeometry x="90" y="870" width="160" height="110" as="geometry" />
        </mxCell>
        <mxCell id="Ojedzj1Hnx-V5VLSPEPJ-40" value="&lt;span style=&quot;font-size: 11pt ; font-family: &amp;#34;arial&amp;#34; ; color: rgb(0 , 0 , 0) ; background-color: transparent ; font-weight: 400 ; font-style: normal ; font-variant: normal ; text-decoration: none ; vertical-align: baseline&quot;&gt;markFavorite()&lt;/span&gt;" style="text;html=1;strokeColor=none;fillColor=none;align=center;verticalAlign=middle;whiteSpace=wrap;rounded=0;" vertex="1" parent="1">
          <mxGeometry x="145" y="940" width="40" height="20" as="geometry" />
        </mxCell>
        <mxCell id="Ojedzj1Hnx-V5VLSPEPJ-41" value="&lt;div&gt;&amp;lt;&amp;lt;interface&amp;gt;&amp;gt;&lt;/div&gt;&lt;div&gt;&lt;b&gt;Mark_Favourite&lt;/b&gt;&lt;br&gt;&lt;/div&gt;" style="text;html=1;strokeColor=none;fillColor=none;align=center;verticalAlign=middle;whiteSpace=wrap;rounded=0;" vertex="1" parent="1">
          <mxGeometry x="145" y="890" width="40" height="20" as="geometry" />
        </mxCell>
        <mxCell id="Ojedzj1Hnx-V5VLSPEPJ-42" value="" style="endArrow=none;html=1;exitX=0;exitY=0.5;exitDx=0;exitDy=0;entryX=1;entryY=0.5;entryDx=0;entryDy=0;" edge="1" parent="1" source="Ojedzj1Hnx-V5VLSPEPJ-39" target="Ojedzj1Hnx-V5VLSPEPJ-39">
          <mxGeometry width="50" height="50" relative="1" as="geometry">
            <mxPoint x="100" y="960" as="sourcePoint" />
            <mxPoint x="150" y="910" as="targetPoint" />
          </mxGeometry>
        </mxCell>
        <mxCell id="Ojedzj1Hnx-V5VLSPEPJ-43" value="" style="endArrow=classic;html=1;exitX=1.006;exitY=0.157;exitDx=0;exitDy=0;exitPerimeter=0;" edge="1" parent="1" source="Ojedzj1Hnx-V5VLSPEPJ-15">
          <mxGeometry width="50" height="50" relative="1" as="geometry">
            <mxPoint x="440" y="330" as="sourcePoint" />
            <mxPoint x="570" y="350" as="targetPoint" />
          </mxGeometry>
        </mxCell>
        <mxCell id="Ojedzj1Hnx-V5VLSPEPJ-44" value="" style="endArrow=classic;html=1;exitX=0.5;exitY=1;exitDx=0;exitDy=0;entryX=0.395;entryY=0.067;entryDx=0;entryDy=0;entryPerimeter=0;" edge="1" parent="1" source="Ojedzj1Hnx-V5VLSPEPJ-7" target="Ojedzj1Hnx-V5VLSPEPJ-14">
          <mxGeometry width="50" height="50" relative="1" as="geometry">
            <mxPoint x="670" y="580" as="sourcePoint" />
            <mxPoint x="720" y="530" as="targetPoint" />
          </mxGeometry>
        </mxCell>
        <mxCell id="Ojedzj1Hnx-V5VLSPEPJ-45" value="" style="endArrow=none;dashed=1;html=1;dashPattern=1 3;strokeWidth=2;exitX=-0.023;exitY=0.167;exitDx=0;exitDy=0;exitPerimeter=0;entryX=1;entryY=0.5;entryDx=0;entryDy=0;" edge="1" parent="1" source="Ojedzj1Hnx-V5VLSPEPJ-14" target="Ojedzj1Hnx-V5VLSPEPJ-30">
          <mxGeometry width="50" height="50" relative="1" as="geometry">
            <mxPoint x="360" y="630" as="sourcePoint" />
            <mxPoint x="410" y="580" as="targetPoint" />
          </mxGeometry>
        </mxCell>
        <mxCell id="Ojedzj1Hnx-V5VLSPEPJ-46" value="" style="endArrow=none;dashed=1;html=1;dashPattern=1 3;strokeWidth=2;exitX=-0.023;exitY=0.167;exitDx=0;exitDy=0;exitPerimeter=0;entryX=1.012;entryY=0.554;entryDx=0;entryDy=0;entryPerimeter=0;" edge="1" parent="1" target="Ojedzj1Hnx-V5VLSPEPJ-35">
          <mxGeometry width="50" height="50" relative="1" as="geometry">
            <mxPoint x="425.05500000000006" y="752.55" as="sourcePoint" />
            <mxPoint x="245" y="667.45" as="targetPoint" />
          </mxGeometry>
        </mxCell>
        <mxCell id="Ojedzj1Hnx-V5VLSPEPJ-47" value="" style="endArrow=none;dashed=1;html=1;dashPattern=1 3;strokeWidth=2;exitX=-0.014;exitY=0.917;exitDx=0;exitDy=0;exitPerimeter=0;entryX=1;entryY=0.5;entryDx=0;entryDy=0;" edge="1" parent="1" source="Ojedzj1Hnx-V5VLSPEPJ-14">
          <mxGeometry width="50" height="50" relative="1" as="geometry">
            <mxPoint x="430.05500000000006" y="1025.1" as="sourcePoint" />
            <mxPoint x="250" y="940" as="targetPoint" />
          </mxGeometry>
        </mxCell>
      </root>
    </mxGraphModel>
  </diagram>
</mxfile>
